{"title":"The.Hours.2002.HDTV.720p.x264.AC3-Manila","uid":6104514,"size":4696122862,"categoryP":"video","categoryS":"hd___movies","magnet":"?xt=urn:btih:000cbdbdcdf03d15ee826f392005cf64ec039929&amp;dn=The.Hours.2002.HDTV.720p.x264.AC3-Manila&amp;tr=udp%3A%2F%2Ftracker.openbittorrent.com%3A80&amp;tr=udp%3A%2F%2Fopen.demonii.com%3A1337&amp;tr=udp%3A%2F%2Ftracker.coppersurfer.tk%3A6969&amp;tr=udp%3A%2F%2Fexodus.desync.com%3A6969","seeders":1,"leechers":1,"uploader":"scorpi818","files":1,"time":1295110843,"description":"General\n   Complete name : The.Hours.2002.HDTV.720p.x264.AC3-Manila.mkv\n   Format : Matroska\n   File size : 4.37 GiB\n   Duration : 1h 49mn\n   Overall bit rate : 5 717 Kbps\n   Movie name : The Hours (2002)\n   Encoded date : UTC 2008-04-20 10:56:58\n \nVideo #1\n   ID : 1\n   Format : AVC\n   Format/Info : Advanced Video Codec\n   Format profile : &lt;a class=&quot;__cf_email__&quot; href=&quot;/cdn-cgi/l/email-protection&quot; data-cfemail=&quot;83cbeae4ebc3cfb7adb2&quot;&gt;[email&amp;#160;protected]&lt;/a&gt;&lt;script cf-hash='f9e31' type=&quot;text/javascript&quot;&gt;\n/* &lt;![CDATA[ */!function(){try{var t=&quot;currentScript&quot;in document?document.currentScript:function(){for(var t=document.getElementsByTagName(&quot;script&quot;),e=t.length;e--;)if(t[e].getAttribute(&quot;cf-hash&quot;))return t[e]}();if(t&amp;&amp;t.previousSibling){var e,r,n,i,c=t.previousSibling,a=c.getAttribute(&quot;data-cfemail&quot;);if(a){for(e=&quot;&quot;,r=parseInt(a.substr(0,2),16),n=2;a.length-n;n+=2)i=parseInt(a.substr(n,2),16)^r,e+=String.fromCharCode(i);e=document.createTextNode(e),c.parentNode.replaceChild(e,c)}}}catch(u){}}();/* ]]&gt; */&lt;/script&gt;\n   Format settings, CABAC : Yes\n   Format settings, ReFrames : 5 frames\n   Muxing mode : Container profile=&lt;a class=&quot;__cf_email__&quot; href=&quot;/cdn-cgi/l/email-protection&quot; data-cfemail=&quot;86d3e8ede8e9f1e8c6b2a8b7&quot;&gt;[email&amp;#160;protected]&lt;/a&gt;&lt;script cf-hash='f9e31' type=&quot;text/javascript&quot;&gt;\n/* &lt;![CDATA[ */!function(){try{var t=&quot;currentScript&quot;in document?document.currentScript:function(){for(var t=document.getElementsByTagName(&quot;script&quot;),e=t.length;e--;)if(t[e].getAttribute(&quot;cf-hash&quot;))return t[e]}();if(t&amp;&amp;t.previousSibling){var e,r,n,i,c=t.previousSibling,a=c.getAttribute(&quot;data-cfemail&quot;);if(a){for(e=&quot;&quot;,r=parseInt(a.substr(0,2),16),n=2;a.length-n;n+=2)i=parseInt(a.substr(n,2),16)^r,e+=String.fromCharCode(i);e=document.createTextNode(e),c.parentNode.replaceChild(e,c)}}}catch(u){}}();/* ]]&gt; */&lt;/script&gt;\n   Codec ID : V_MPEG4/ISO/AVC\n   Duration : 1h 49mn\n   Bit rate : 5 155 Kbps\n   Nominal bit rate : 5 265 Kbps\n   Width : 1 280 pixels\n   Height : 720 pixels\n   Display aspect ratio : 16:9\n   Frame rate : 23.976 fps\n   Resolution : 24 bits\n   Colorimetry : 4:2:0\n   Scan type : Progressive\n   Bits/(Pixel*Frame) : 0.233\n   Stream size : 3.94 GiB (90%)\n   Writing library : x264 core 59 r819 0414d78\n\nAudio #2\n   ID : 2\n   Format : AC-3\n   Format/Info : Audio Coding 3\n   Codec ID : A_AC3\n   Duration : 1h 49mn\n   Bit rate mode : Constant\n   Bit rate : 448 Kbps\n   Channel(s) : 5 channels\n   Channel positions : Front: L C R, Surround: L R\n   Sampling rate : 48.0 KHz\n   Stream size : 351 MiB (8%)\n   Language : English\n\n\nStoryline:\nIn 1951, Laura Brown, a pregnant housewife, is planning a party for her husband, but she can't stop reading the novel 'Mrs. Dalloway'. Clarissa Vaughn, a modern woman living in present times is throwing a party for her friend Richard, a famous author dying of AIDS. These two stories are simultaneously linked to the work and life of Virginia Woolf, who's writing the novel mentioned before.\n\n\nScreenshots: &lt;a href=&quot;\nhttp://www.postimg.com/image/28000/27112.jpg&quot; rel=&quot;nofollow&quot; target=&quot;_NEW&quot;&gt;\nhttp://www.postimg.com/image/28000/27112.jpg&lt;/a&gt; &lt;a href=&quot;\nhttp://www.postimg.com/image/28000/27113.jpg&quot; rel=&quot;nofollow&quot; target=&quot;_NEW&quot;&gt;\nhttp://www.postimg.com/image/28000/27113.jpg&lt;/a&gt; &lt;a href=&quot;\nhttp://www.postimg.com/image/28000/27114.jpg&quot; rel=&quot;nofollow&quot; target=&quot;_NEW&quot;&gt;\nhttp://www.postimg.com/image/28000/27114.jpg&lt;/a&gt;\n\n\nIMDb: &lt;a href=&quot;\nhttp://www.imdb.com/title/tt0274558/&quot; rel=&quot;nofollow&quot; target=&quot;_NEW&quot;&gt;\nhttp://www.imdb.com/title/tt0274558/&lt;/a&gt;\n\nIMDb Rating: 7.6/10","torrent":{"xt":"urn:btih:000cbdbdcdf03d15ee826f392005cf64ec039929","amp;dn":"The.Hours.2002.HDTV.720p.x264.AC3-Manila","amp;tr":["udp%3A%2F%2Ftracker.openbittorrent.com%3A80","udp%3A%2F%2Fopen.demonii.com%3A1337","udp%3A%2F%2Ftracker.coppersurfer.tk%3A6969","udp%3A%2F%2Fexodus.desync.com%3A6969"],"infoHash":"000cbdbdcdf03d15ee826f392005cf64ec039929","infoHashBuffer":{"type":"Buffer","data":[0,12,189,189,205,240,61,21,238,130,111,57,32,5,207,100,236,3,153,41]},"announce":[],"urlList":[]}}